# xmcd
#
# Track frame offsets:
# 150
# 18588
# 35756
# 52328
# 75229
# 96063
# 119481
# 143841
# 164063
# 187013
# 206311
# 224145
#
# Disc length: 3291 seconds
#
# Revision: 0
# Processed by: cddbd v1.4PL0 Copyright (c) Steve Scherf et al.
# Submitted via: Axialis_AX_CDPlayer 2.6
#
DISCID=b60cd90c
DTITLE=Coco Montoya - Suspicion
DYEAR=1900
DGENRE=
TTITLE0=Enough Is Enough
TTITLE1=Casting My Spell
TTITLE2=I Need Your Love In My Life
TTITLE3=Fool
TTITLE4=Don't Take It Personally
TTITLE5=Get Your Business Straight
TTITLE6=Trading One Fool For Another
TTITLE7=Beyond The Blues
TTITLE8=Good Days, Bad Days
TTITLE9=What I Know Now
TTITLE10=You Didn't Think About That
TTITLE11=Nothing But Love
EXTD=
EXTT0=
EXTT1=
EXTT2=
EXTT3=
EXTT4=
EXTT5=
EXTT6=
EXTT7=
EXTT8=
EXTT9=
EXTT10=
EXTT11=
PLAYORDER=
